# xmcd
#
# Track frame offsets:
#	150
#	12692
#	23875
#	34736
#	45889
#	55767
#	65927
#	76655
#	87381
#	98660
#	107856
#	117209
#	133558
#	144419
#	158062
#	168774
#
# Disc length: 2388 seconds
#
# Revision: 4
# Processed by: cddbd v1.5.1PL0 Copyright (c) Steve Scherf et al.
# Submitted via: EasyCDDAExtractor 8.0.1.1
#
DISCID=c7095210
DTITLE=Buck Owens - The Very Best Of Buck Owens, Vol. 1
DYEAR=1994
DGENRE=Country
TTITLE0=Under Your Spell Again
TTITLE1=Excuse Me
TTITLE2=Act Naturally
TTITLE3=Together Again
TTITLE4=I Don't Care
TTITLE5=I've Got A Tiger By The Tail
TTITLE6=Only You
TTITLE7=Waitin' In Your Welfare Line
TTITLE8=Open Up Your Heart
TTITLE9=Sam's Place
TTITLE10=It Takes People Like You
TTITLE11=Sweet Rosie Jones
TTITLE12=Who's Going To Mow Your Grass
TTITLE13=Tall Dark Stranger
TTITLE14=The Kansas City Song
TTITLE15=Rollin' In My Sweet Baby's Arms
EXTD=
EXTT0=
EXTT1=
EXTT2=
EXTT3=
EXTT4=
EXTT5=
EXTT6=
EXTT7=
EXTT8=
EXTT9=
EXTT10=
EXTT11=
EXTT12=
EXTT13=
EXTT14=
EXTT15=
PLAYORDER=
